# xmcd CD database file
#
# Track frame offsets:
#	150
#	22625
#	39980
#	62405
#
# Disc length: 1061 seconds
#
# Revision: 0
# Processed by: cddbd v1.5PL3 Copyright (c) Steve Scherf et al.
# Submitted via: CDex 1.51
#
DISCID=1e042304
DTITLE=テレサ・テン - あなたと共に生きてゆく
DYEAR=1900
DGENRE=Blues
TTITLE0=あなたと共に生きてゆく
TTITLE1=愛し愛されて
TTITLE2=あなたと共に生きてゆく
TTITLE3=愛し愛されて
EXTD=
EXTT0=
EXTT1=
EXTT2=
EXTT3=
PLAYORDER=
